<svg width="80" height="24" viewBox="0 0 80 24" fill="none" xmlns="http://www.w3.org/2000/svg">
<g clip-path="url(#clip0_871_642)">
    <path d="M77.3333 0H2.66667C1.19391 0 0 1.19391 0 2.66667V21.3333C0 22.8061 1.19391 24 2.66667 24H77.3333C78.8061 24 80 22.8061 80 21.3333V2.66667C80 1.19391 78.8061 0 77.3333 0Z"
          fill="black"/>
    <mask id="mask0_871_642" style="mask-type:luminance" maskUnits="userSpaceOnUse" x="20" y="1" width="41"
          height="23">
        <path d="M60.4443 1.77783H20.4443V23.1112H60.4443V1.77783Z" fill="white"/>
    </mask>
    <g mask="url(#mask0_871_642)">
        <path d="M46.1998 14.5946H48.659V19.8031H49.9232V14.5946H52.3823V13.3706H46.2011V14.5946H46.1998ZM31.086 18.5805V16.9994H34.3401V15.7755H31.086V14.5959H34.9427V13.3733H29.8218V19.8044H35.1607V18.5805H31.0848H31.086ZM39.5546 15.9932V14.5933H41.8816C42.4522 14.5972 42.6893 14.8683 42.6945 15.3076C42.6817 15.7416 42.4675 15.9971 41.8406 15.9919H39.5546V15.9932ZM38.2916 13.3719V19.8031H39.5546V17.2183H41.3688L42.8176 19.8031H44.2343L42.7342 17.1219C43.5035 16.8365 43.9804 16.1248 43.9856 15.2854C43.9856 14.0667 43.1522 13.3758 41.8931 13.3706M56.3005 13.3706H55.035V17.6146C55.035 19.2596 55.8722 19.9191 57.6916 19.9191C59.5173 19.9204 60.3571 19.2557 60.3635 17.6199V13.3706H59.0968V17.4204C59.0968 18.471 58.8942 18.6808 57.7019 18.6847C56.4992 18.6808 56.2992 18.4736 56.2992 17.4204V13.3706H56.3005ZM23.8933 17.7255L21.8406 13.3706H20.4443L23.492 19.8018H24.2818L27.3755 13.3706H25.9768L23.8933 17.7255Z"
              fill="white"/>
        <path d="M46.1948 22.6458V21.0635H46.491V21.6474C46.5794 21.5314 46.705 21.4714 46.8384 21.4714C47.1256 21.4714 47.3371 21.6995 47.3371 22.0736C47.3371 22.4477 47.1231 22.6732 46.8384 22.6732C46.7026 22.6732 46.5794 22.6119 46.491 22.4973V22.6445H46.1948V22.6458ZM46.7461 22.406C46.9192 22.406 47.0333 22.273 47.0333 22.0736C47.0333 21.8741 46.9192 21.7386 46.7461 21.7386C46.6499 21.7386 46.541 21.7959 46.4922 21.8716V22.2769C46.541 22.35 46.6513 22.4046 46.7461 22.4046V22.406Z"
              fill="white"/>
        <path d="M47.5667 22.8245C47.5924 22.8362 47.6321 22.8441 47.6603 22.8441C47.7373 22.8441 47.7886 22.8232 47.8167 22.7606L47.8591 22.6629L47.4014 21.5002H47.718L48.0116 22.2966L48.3053 21.5002H48.6245L48.095 22.8337C48.0103 23.05 47.8616 23.106 47.668 23.1113C47.6334 23.1113 47.5577 23.1048 47.5206 23.0943L47.5655 22.8245H47.5667Z"
              fill="white"/>
        <path d="M50.1324 22.6458V22.4985C50.0439 22.6119 49.9195 22.6745 49.7849 22.6745C49.5003 22.6745 49.2861 22.4568 49.2861 22.0748C49.2861 21.693 49.4989 21.4727 49.7849 21.4727C49.9182 21.4727 50.0439 21.5314 50.1324 21.6486V21.0647H50.4311V22.6471H50.1324V22.6458ZM50.1324 22.2756V21.8702C50.0836 21.7947 49.9759 21.7399 49.8759 21.7399C49.7079 21.7399 49.5913 21.8755 49.5913 22.0748C49.5913 22.2743 49.7079 22.4073 49.8759 22.4073C49.9759 22.4073 50.0836 22.3525 50.1324 22.2769V22.2756Z"
              fill="white"/>
        <path d="M50.6948 21.1964C50.6948 21.0974 50.7769 21.0178 50.8717 21.0178C50.9666 21.0178 51.0487 21.096 51.0487 21.1964C51.0487 21.2968 50.9692 21.3763 50.8717 21.3763C50.7743 21.3763 50.6948 21.2955 50.6948 21.1964ZM50.7256 22.6458V21.5001H51.0218V22.6458H50.7256Z"
              fill="white"/>
        <path d="M52.0899 22.6458V22.4985C52.0014 22.6119 51.8771 22.6745 51.7424 22.6745C51.4578 22.6745 51.2437 22.4568 51.2437 22.0748C51.2437 21.693 51.4565 21.4727 51.7424 21.4727C51.8757 21.4727 52.0014 21.5314 52.0899 21.6486V21.0647H52.3886V22.6471H52.0899V22.6458ZM52.0899 22.2756V21.8702C52.0412 21.7947 51.9334 21.7399 51.8334 21.7399C51.6655 21.7399 51.5488 21.8755 51.5488 22.0748C51.5488 22.2743 51.6655 22.4073 51.8334 22.4073C51.9334 22.4073 52.0412 22.3525 52.0899 22.2769V22.2756Z"
              fill="white"/>
        <path d="M52.6118 22.0722C52.6118 21.7477 52.8362 21.4727 53.2067 21.4727C53.5772 21.4727 53.8042 21.7477 53.8042 22.0722C53.8042 22.3967 53.5798 22.6744 53.2067 22.6744C52.8336 22.6744 52.6118 22.3994 52.6118 22.0722ZM53.4964 22.0722C53.4964 21.8936 53.3913 21.7399 53.2067 21.7399C53.022 21.7399 52.9195 21.8936 52.9195 22.0722C52.9195 22.2508 53.022 22.4072 53.2067 22.4072C53.3913 22.4072 53.4964 22.2534 53.4964 22.0722Z"
              fill="white"/>
        <path d="M54.7837 22.6457V21.9536C54.7837 21.7946 54.7017 21.7399 54.576 21.7399C54.4593 21.7399 54.3683 21.8063 54.3196 21.8754V22.6457H54.0234V21.5H54.3196V21.6499C54.3913 21.5625 54.5298 21.4727 54.7145 21.4727C54.9619 21.4727 55.0811 21.6147 55.0811 21.8375V22.6471H54.7849L54.7837 22.6457Z"
              fill="white"/>
        <path d="M55.3519 22.9404L55.4853 22.7227C55.5763 22.8244 55.6955 22.8648 55.8379 22.8648C55.9802 22.8648 56.1481 22.8009 56.1481 22.5754V22.4594C56.0597 22.5729 55.9379 22.6393 55.8006 22.6393C55.5186 22.6393 55.3032 22.4373 55.3032 22.0553C55.3032 21.6735 55.516 21.4714 55.8006 21.4714C55.9366 21.4714 56.0571 21.5301 56.1481 21.6474V21.5001H56.4469V22.5676C56.4469 23.0042 56.1161 23.1112 55.8379 23.1112C55.6442 23.1112 55.4942 23.0656 55.3519 22.9404ZM56.1481 22.2405V21.8703C56.0994 21.7947 55.9917 21.74 55.8942 21.74C55.7263 21.74 55.6096 21.8585 55.6096 22.0553C55.6096 22.2522 55.7263 22.3708 55.8942 22.3708C55.9917 22.3708 56.0994 22.3135 56.1481 22.2405Z"
              fill="white"/>
        <path d="M57.0327 22.6459L56.5801 21.5002H56.8968L57.1904 22.2966L57.484 21.5002H57.8033L57.3507 22.6459H57.0314H57.0327Z"
              fill="white"/>
        <path d="M57.9072 21.1964C57.9072 21.0974 57.9893 21.0178 58.0841 21.0178C58.179 21.0178 58.2611 21.096 58.2611 21.1964C58.2611 21.2968 58.1816 21.3763 58.0841 21.3763C57.9867 21.3763 57.9072 21.2955 57.9072 21.1964ZM57.938 22.6458V21.5001H58.2342V22.6458H57.938Z"
              fill="white"/>
        <path d="M58.4556 22.0722C58.4556 21.7399 58.6954 21.4727 59.0389 21.4727C59.3826 21.4727 59.6031 21.7294 59.6031 22.1035V22.17H58.7659C58.7851 22.3146 58.8992 22.4359 59.0902 22.4359C59.1864 22.4359 59.3185 22.3928 59.3916 22.3224L59.5223 22.5167C59.4108 22.6209 59.2325 22.6757 59.0582 22.6757C58.7146 22.6757 58.4569 22.4411 58.4569 22.0735L58.4556 22.0722ZM59.0389 21.7111C58.8543 21.7111 58.7749 21.8506 58.7607 21.9654H59.3159C59.3095 21.8559 59.2339 21.7111 59.0377 21.7111H59.0389Z"
              fill="white"/>
        <path d="M59.8776 22.3617V21.7634H59.6904V21.5001H59.8776V21.1873H60.1763V21.5001H60.4046V21.7634H60.1763V22.2809C60.1763 22.3526 60.2135 22.406 60.2789 22.406C60.3238 22.406 60.3648 22.389 60.3814 22.3721L60.4443 22.6002C60.3994 22.6406 60.3212 22.6732 60.1968 22.6732C59.9891 22.6732 59.8776 22.5637 59.8776 22.3604V22.3617Z"
              fill="white"/>
        <path d="M33.6862 4.44205C33.3426 4.20222 33.3002 3.94545 33.3824 3.68867C33.4067 3.61177 33.4605 3.5466 33.5247 3.49316C33.5298 3.48925 33.5337 3.48533 33.5387 3.48142C33.5657 3.45666 33.5836 3.42147 33.5836 3.38106C33.5836 3.31719 33.5401 3.26505 33.4824 3.25071C33.4721 3.24941 33.4618 3.24811 33.4515 3.2468C32.1656 3.07605 29.0026 2.68633 25.837 2.3357C23.96 2.12716 22.0855 1.93164 20.6046 1.78044C20.5944 1.78044 20.5854 1.77914 20.5751 1.77783C20.5034 1.77783 20.4443 1.83909 20.4443 1.91209C20.4443 1.97334 20.4841 2.02418 20.5379 2.04113C20.5456 2.04243 20.5521 2.04373 20.5597 2.04634C22.7663 2.53904 25.0703 3.23768 27.3153 4.35733C32.3412 6.86645 37.021 10.5017 37.021 10.5017H43.865C43.865 10.5017 39.3199 7.7202 38.4186 7.22749C37.5185 6.7361 34.0285 4.68189 33.685 4.44205"
              fill="white"/>
        <path d="M60.3137 1.77766C60.3033 1.77766 60.2931 1.77897 60.2841 1.78027C58.8033 1.93147 56.9288 2.12699 55.053 2.33423C51.8888 2.68486 48.7244 3.07459 47.4385 3.24534C47.4281 3.24664 47.4179 3.24794 47.4077 3.24925C47.3487 3.26358 47.3064 3.31572 47.3064 3.37958C47.3064 3.41999 47.3243 3.45518 47.3513 3.47995C47.3551 3.48386 47.3602 3.48777 47.3654 3.49168C47.4295 3.54512 47.4833 3.6103 47.5077 3.6872C47.5884 3.94398 47.5461 4.20075 47.2038 4.44059C46.8602 4.68042 43.3702 6.73463 42.4702 7.22603C42.2073 7.36941 41.6329 7.7096 40.9521 8.11628C42.4189 9.00131 44.0202 9.98149 44.1305 10.0493L44.3139 10.1614C45.5961 9.20335 49.4681 6.40356 53.5721 4.35456C55.8172 3.23491 58.1199 2.53627 60.3265 2.04357C60.3341 2.04357 60.3406 2.04096 60.3482 2.03966C60.4021 2.02271 60.4418 1.97188 60.4418 1.91062C60.4418 1.83632 60.3829 1.77766 60.3111 1.77637"
              fill="white"/>
    </g>
</g>
<defs>
    <clipPath id="clip0_871_642">
        <rect width="80" height="24" fill="white"/>
    </clipPath>
</defs>
</svg>

