<svg width="80" height="24" viewBox="0 0 80 24" fill="none" xmlns="http://www.w3.org/2000/svg">
    <rect width="80" height="24" rx="3" fill="black"/>
    <path d="M39.0149 4.59364L39.8376 6.90177L40.7237 4.49312C40.7932 4.29953 40.8614 4.16303 40.9284 4.08361C40.9954 4.00171 41.0972 3.96076 41.2337 3.96076C41.3627 3.96076 41.472 4.00419 41.5613 4.09106C41.6531 4.17792 41.699 4.27844 41.699 4.3926C41.699 4.43728 41.6904 4.4894 41.673 4.54896C41.6581 4.60853 41.6395 4.66437 41.6171 4.71649C41.5973 4.76861 41.5737 4.82817 41.5464 4.89518L40.571 7.315C40.5437 7.3845 40.5077 7.4726 40.4631 7.57932C40.4209 7.68604 40.3725 7.77787 40.3179 7.85481C40.2658 7.92927 40.2 7.98759 40.1206 8.02978C40.0436 8.07197 39.9493 8.09307 39.8376 8.09307C39.6937 8.09307 39.5783 8.06081 39.4914 7.99628C39.407 7.92927 39.3437 7.85729 39.3016 7.78035C39.2618 7.70093 39.1936 7.54582 39.0968 7.315L38.1289 4.92124C38.1065 4.86168 38.083 4.80211 38.0581 4.74255C38.0358 4.68298 38.0159 4.62218 37.9986 4.56013C37.9837 4.49808 37.9762 4.44472 37.9762 4.40005C37.9762 4.33056 37.9973 4.26231 38.0395 4.1953C38.0817 4.1258 38.14 4.06996 38.2145 4.02777C38.289 3.9831 38.3696 3.96076 38.4565 3.96076C38.6252 3.96076 38.7407 4.00916 38.8027 4.10595C38.8672 4.20274 38.938 4.3653 39.0149 4.59364ZM43.445 4.53779V7.47508C43.445 7.6786 43.3966 7.83247 43.2998 7.93671C43.2031 8.04095 43.0802 8.09307 42.9313 8.09307C42.7824 8.09307 42.6608 8.03971 42.5665 7.93299C42.4746 7.82627 42.4287 7.67363 42.4287 7.47508V4.56758C42.4287 4.36654 42.4746 4.21515 42.5665 4.11339C42.6608 4.01164 42.7824 3.96076 42.9313 3.96076C43.0802 3.96076 43.2031 4.01164 43.2998 4.11339C43.3966 4.21515 43.445 4.35662 43.445 4.53779ZM42.9425 3.48796C42.801 3.48796 42.6794 3.44453 42.5776 3.35766C42.4783 3.2708 42.4287 3.14795 42.4287 2.98911C42.4287 2.84516 42.4796 2.72727 42.5813 2.63544C42.6856 2.54113 42.806 2.49397 42.9425 2.49397C43.074 2.49397 43.1906 2.53617 43.2924 2.62055C43.3942 2.70493 43.445 2.82779 43.445 2.98911C43.445 3.14547 43.3954 3.26832 43.2961 3.35766C43.1968 3.44453 43.079 3.48796 42.9425 3.48796ZM47.3354 6.27634H45.3474C45.3499 6.50716 45.3958 6.71067 45.4851 6.88688C45.577 7.06309 45.6973 7.19587 45.8462 7.28522C45.9976 7.37457 46.1639 7.41924 46.3451 7.41924C46.4667 7.41924 46.5772 7.40559 46.6764 7.37829C46.7782 7.34851 46.8762 7.30384 46.9705 7.24427C47.0648 7.18222 47.1517 7.11645 47.2311 7.04696C47.3105 6.97747 47.4135 6.88316 47.5401 6.76403C47.5922 6.71936 47.6667 6.69702 47.7635 6.69702C47.8677 6.69702 47.9521 6.72556 48.0166 6.78264C48.0812 6.83973 48.1134 6.92039 48.1134 7.02463C48.1134 7.11645 48.0774 7.22442 48.0055 7.34851C47.9335 7.47012 47.8243 7.58801 47.6779 7.70218C47.5339 7.81386 47.3515 7.90693 47.1306 7.98139C46.9122 8.05584 46.6603 8.09307 46.3749 8.09307C45.7222 8.09307 45.2146 7.90693 44.8523 7.53465C44.4899 7.16237 44.3087 6.65731 44.3087 6.01947C44.3087 5.71916 44.3534 5.44119 44.4427 5.18556C44.5321 4.92745 44.6624 4.70656 44.8336 4.5229C45.0049 4.33924 45.2158 4.19902 45.4665 4.10223C45.7172 4.00295 45.9952 3.95331 46.3004 3.95331C46.6975 3.95331 47.0375 4.0377 47.3205 4.20646C47.6059 4.37275 47.8193 4.58867 47.9608 4.85423C48.1023 5.11979 48.173 5.39032 48.173 5.6658C48.173 5.92144 48.0998 6.08772 47.9533 6.16466C47.8069 6.23911 47.6009 6.27634 47.3354 6.27634ZM45.3474 5.69931H47.1902C47.1654 5.35185 47.071 5.09249 46.9072 4.92124C46.7459 4.74751 46.5325 4.66065 46.2669 4.66065C46.0138 4.66065 45.8053 4.74875 45.6415 4.92496C45.4802 5.0987 45.3821 5.35681 45.3474 5.69931ZM49.9562 4.5229V4.64575C50.1349 4.40998 50.3297 4.23749 50.5407 4.12829C50.7541 4.0166 50.9986 3.96076 51.2741 3.96076C51.5421 3.96076 51.7816 4.01908 51.9926 4.13573C52.2035 4.25238 52.3611 4.41742 52.4654 4.63086C52.5324 4.75496 52.5758 4.88898 52.5957 5.03293C52.6155 5.17687 52.6255 5.36053 52.6255 5.5839V7.47508C52.6255 7.6786 52.5783 7.83247 52.484 7.93671C52.3922 8.04095 52.2718 8.09307 52.1229 8.09307C51.9715 8.09307 51.8486 8.03971 51.7543 7.93299C51.66 7.82627 51.6129 7.67363 51.6129 7.47508V5.78121C51.6129 5.44616 51.5657 5.19052 51.4714 5.01431C51.3796 4.83562 51.1947 4.74627 50.9167 4.74627C50.7355 4.74627 50.5705 4.80087 50.4216 4.91007C50.2727 5.01679 50.1635 5.16447 50.094 5.35309C50.0443 5.50448 50.0195 5.78741 50.0195 6.20189V7.47508C50.0195 7.68108 49.9711 7.8362 49.8743 7.94044C49.78 8.04219 49.6572 8.09307 49.5058 8.09307C49.3593 8.09307 49.239 8.03971 49.1446 7.93299C49.0503 7.82627 49.0032 7.67363 49.0032 7.47508V4.53779C49.0032 4.34421 49.0454 4.20026 49.1298 4.10595C49.2141 4.00916 49.3295 3.96076 49.476 3.96076C49.5653 3.96076 49.646 3.98185 49.718 4.02405C49.7899 4.06624 49.847 4.12953 49.8892 4.21391C49.9339 4.29829 49.9562 4.40129 49.9562 4.5229Z"
          fill="white"/>
    <path d="M41.0811 15.4776V15.3771C40.9446 15.5335 40.8093 15.6613 40.6753 15.7606C40.5437 15.8574 40.3998 15.9306 40.2434 15.9802C40.0895 16.0323 39.9208 16.0584 39.7371 16.0584C39.4939 16.0584 39.2681 16.0075 39.0596 15.9058C38.8536 15.8015 38.6749 15.6539 38.5235 15.4628C38.3721 15.2716 38.2567 15.047 38.1773 14.7889C38.1003 14.5308 38.0619 14.2516 38.0619 13.9513C38.0619 13.3159 38.217 12.8208 38.5272 12.4659C38.8374 12.111 39.2457 11.9335 39.752 11.9335C40.0449 11.9335 40.2918 11.9844 40.4929 12.0862C40.6939 12.1854 40.89 12.3393 41.0811 12.5478V11.0475C41.0811 10.839 41.122 10.6814 41.2039 10.5747C41.2883 10.468 41.4074 10.4146 41.5613 10.4146C41.7152 10.4146 41.8331 10.4643 41.915 10.5635C41.9993 10.6603 42.0415 10.8043 42.0415 10.9954V15.4776C42.0415 15.6712 41.9969 15.8164 41.9075 15.9132C41.8182 16.01 41.7028 16.0584 41.5613 16.0584C41.4223 16.0584 41.3069 16.0088 41.2151 15.9095C41.1257 15.8077 41.0811 15.6638 41.0811 15.4776ZM39.0819 13.9848C39.0819 14.2603 39.1241 14.4948 39.2085 14.6884C39.2954 14.882 39.4132 15.0284 39.5622 15.1277C39.7111 15.2245 39.8736 15.2729 40.0498 15.2729C40.2285 15.2729 40.3911 15.227 40.5375 15.1351C40.6864 15.0408 40.8043 14.8981 40.8912 14.707C40.9805 14.5134 41.0252 14.2727 41.0252 13.9848C41.0252 13.7143 40.9805 13.4822 40.8912 13.2886C40.8043 13.0926 40.6852 12.9437 40.5338 12.8419C40.3849 12.7377 40.2211 12.6855 40.0424 12.6855C39.8563 12.6855 39.69 12.7389 39.5435 12.8456C39.3971 12.9499 39.2829 13.1013 39.201 13.2998C39.1216 13.4959 39.0819 13.7242 39.0819 13.9848ZM44.0779 12.5031V15.4404C44.0779 15.6439 44.0295 15.7978 43.9327 15.902C43.8359 16.0063 43.7131 16.0584 43.5642 16.0584C43.4153 16.0584 43.2936 16.005 43.1993 15.8983C43.1075 15.7916 43.0616 15.639 43.0616 15.4404V12.5329C43.0616 12.3319 43.1075 12.1805 43.1993 12.0787C43.2936 11.977 43.4153 11.9261 43.5642 11.9261C43.7131 11.9261 43.8359 11.977 43.9327 12.0787C44.0295 12.1805 44.0779 12.3219 44.0779 12.5031ZM43.5753 11.4533C43.4339 11.4533 43.3123 11.4099 43.2105 11.323C43.1112 11.2361 43.0616 11.1133 43.0616 10.9544C43.0616 10.8105 43.1125 10.6926 43.2142 10.6008C43.3185 10.5065 43.4388 10.4593 43.5753 10.4593C43.7069 10.4593 43.8235 10.5015 43.9253 10.5859C44.027 10.6703 44.0779 10.7931 44.0779 10.9544C44.0779 11.1108 44.0283 11.2336 43.929 11.323C43.8297 11.4099 43.7118 11.4533 43.5753 11.4533ZM47.9161 15.4776V15.3771C47.7796 15.5335 47.6444 15.6613 47.5103 15.7606C47.3788 15.8574 47.2348 15.9306 47.0785 15.9802C46.9246 16.0323 46.7558 16.0584 46.5722 16.0584C46.329 16.0584 46.1031 16.0075 45.8946 15.9058C45.6886 15.8015 45.51 15.6539 45.3586 15.4628C45.2072 15.2716 45.0918 15.047 45.0123 14.7889C44.9354 14.5308 44.8969 14.2516 44.8969 13.9513C44.8969 13.3159 45.052 12.8208 45.3623 12.4659C45.6725 12.111 46.0808 11.9335 46.5871 11.9335C46.8799 11.9335 47.1269 11.9844 47.3279 12.0862C47.529 12.1854 47.725 12.3393 47.9161 12.5478V11.0475C47.9161 10.839 47.9571 10.6814 48.039 10.5747C48.1234 10.468 48.2425 10.4146 48.3964 10.4146C48.5502 10.4146 48.6681 10.4643 48.75 10.5635C48.8344 10.6603 48.8766 10.8043 48.8766 10.9954V15.4776C48.8766 15.6712 48.8319 15.8164 48.7426 15.9132C48.6532 16.01 48.5378 16.0584 48.3964 16.0584C48.2574 16.0584 48.142 16.0088 48.0501 15.9095C47.9608 15.8077 47.9161 15.6638 47.9161 15.4776ZM45.917 13.9848C45.917 14.2603 45.9592 14.4948 46.0436 14.6884C46.1304 14.882 46.2483 15.0284 46.3972 15.1277C46.5461 15.2245 46.7087 15.2729 46.8849 15.2729C47.0636 15.2729 47.2262 15.227 47.3726 15.1351C47.5215 15.0408 47.6394 14.8981 47.7263 14.707C47.8156 14.5134 47.8603 14.2727 47.8603 13.9848C47.8603 13.7143 47.8156 13.4822 47.7263 13.2886C47.6394 13.0926 47.5203 12.9437 47.3689 12.8419C47.22 12.7377 47.0562 12.6855 46.8775 12.6855C46.6913 12.6855 46.525 12.7389 46.3786 12.8456C46.2322 12.9499 46.118 13.1013 46.0361 13.2998C45.9567 13.4959 45.917 13.7242 45.917 13.9848ZM53.7014 13.9922C53.7014 14.295 53.6542 14.5742 53.5599 14.8299C53.4656 15.0855 53.3291 15.3052 53.1504 15.4888C52.9717 15.6725 52.7582 15.8139 52.5101 15.9132C52.2619 16.01 51.9827 16.0584 51.6724 16.0584C51.3647 16.0584 51.0879 16.0088 50.8422 15.9095C50.5965 15.8102 50.3831 15.6687 50.2019 15.4851C50.0232 15.299 49.8867 15.0805 49.7924 14.8299C49.7006 14.5767 49.6547 14.2975 49.6547 13.9922C49.6547 13.6845 49.7018 13.4028 49.7961 13.1472C49.8904 12.8915 50.0257 12.6731 50.2019 12.492C50.3781 12.3108 50.5916 12.1718 50.8422 12.075C51.0929 11.9757 51.3696 11.9261 51.6724 11.9261C51.9802 11.9261 52.2594 11.9757 52.5101 12.075C52.7607 12.1743 52.9754 12.3157 53.1541 12.4994C53.3328 12.6831 53.4681 12.9015 53.5599 13.1546C53.6542 13.4078 53.7014 13.687 53.7014 13.9922ZM52.6813 13.9922C52.6813 13.5778 52.5895 13.2551 52.4058 13.0243C52.2246 12.7935 51.9802 12.6781 51.6724 12.6781C51.4739 12.6781 51.2989 12.7302 51.1475 12.8345C50.9961 12.9362 50.8795 13.0876 50.7976 13.2886C50.7157 13.4897 50.6747 13.7242 50.6747 13.9922C50.6747 14.2578 50.7144 14.4899 50.7938 14.6884C50.8757 14.887 50.9912 15.0396 51.1401 15.1463C51.2915 15.2506 51.4689 15.3027 51.6724 15.3027C51.9802 15.3027 52.2246 15.1873 52.4058 14.9565C52.5895 14.7232 52.6813 14.4018 52.6813 13.9922ZM55.4287 12.4882V12.6111C55.6074 12.3753 55.8023 12.2028 56.0132 12.0936C56.2267 11.9819 56.4711 11.9261 56.7466 11.9261C57.0147 11.9261 57.2542 11.9844 57.4651 12.1011C57.6761 12.2177 57.8337 12.3828 57.9379 12.5962C58.0049 12.7203 58.0484 12.8543 58.0682 12.9983C58.0881 13.1422 58.098 13.3259 58.098 13.5492V15.4404C58.098 15.6439 58.0508 15.7978 57.9565 15.902C57.8647 16.0063 57.7443 16.0584 57.5954 16.0584C57.444 16.0584 57.3212 16.005 57.2269 15.8983C57.1325 15.7916 57.0854 15.639 57.0854 15.4404V13.7465C57.0854 13.4115 57.0382 13.1559 56.9439 12.9796C56.8521 12.8009 56.6672 12.7116 56.3892 12.7116C56.208 12.7116 56.043 12.7662 55.8941 12.8754C55.7452 12.9821 55.636 13.1298 55.5665 13.3184C55.5168 13.4698 55.492 13.7527 55.492 14.1672V15.4404C55.492 15.6464 55.4436 15.8015 55.3468 15.9058C55.2525 16.0075 55.1297 16.0584 54.9783 16.0584C54.8318 16.0584 54.7115 16.005 54.6172 15.8983C54.5229 15.7916 54.4757 15.639 54.4757 15.4404V12.5031C54.4757 12.3095 54.5179 12.1656 54.6023 12.0713C54.6867 11.9745 54.8021 11.9261 54.9485 11.9261C55.0378 11.9261 55.1185 11.9472 55.1905 11.9894C55.2625 12.0316 55.3195 12.0949 55.3617 12.1792C55.4064 12.2636 55.4287 12.3666 55.4287 12.4882ZM62.852 12.6707V15.6228C62.852 15.9604 62.816 16.2507 62.744 16.494C62.6721 16.7372 62.5567 16.9382 62.3978 17.0971C62.239 17.2559 62.0305 17.3738 61.7724 17.4507C61.5168 17.5277 61.1978 17.5661 60.8156 17.5661C60.4657 17.5661 60.153 17.5165 59.8775 17.4172C59.602 17.3204 59.3898 17.1939 59.2409 17.0375C59.092 16.8836 59.0175 16.7248 59.0175 16.561C59.0175 16.4369 59.0597 16.3351 59.1441 16.2557C59.2285 16.1788 59.3302 16.1403 59.4494 16.1403C59.5983 16.1403 59.7286 16.2061 59.8403 16.3376C59.8949 16.4046 59.9507 16.4716 60.0078 16.5386C60.0674 16.6081 60.1319 16.6665 60.2014 16.7136C60.2733 16.7633 60.359 16.7992 60.4582 16.8216C60.5575 16.8464 60.6717 16.8588 60.8007 16.8588C61.0638 16.8588 61.2673 16.8216 61.4113 16.7471C61.5577 16.6751 61.6595 16.5734 61.7166 16.4419C61.7761 16.3103 61.8109 16.1688 61.8208 16.0175C61.8307 15.8685 61.8382 15.6278 61.8431 15.2952C61.6868 15.5136 61.5056 15.6799 61.2996 15.7941C61.0961 15.9082 60.8529 15.9653 60.5699 15.9653C60.2299 15.9653 59.9321 15.8785 59.6765 15.7047C59.4233 15.531 59.2285 15.2878 59.092 14.9751C58.9555 14.6624 58.8872 14.3012 58.8872 13.8917C58.8872 13.5865 58.9282 13.311 59.0101 13.0653C59.0945 12.8196 59.2136 12.6123 59.3675 12.4436C59.5213 12.2748 59.6988 12.1482 59.8998 12.0638C60.1009 11.977 60.3217 11.9335 60.5625 11.9335C60.8504 11.9335 61.0998 11.9894 61.3108 12.1011C61.5217 12.2103 61.7178 12.3828 61.899 12.6185V12.4808C61.899 12.3046 61.9424 12.1681 62.0293 12.0713C62.1161 11.9745 62.2278 11.9261 62.3643 11.9261C62.5604 11.9261 62.6907 11.9906 62.7552 12.1197C62.8197 12.2463 62.852 12.4299 62.852 12.6707ZM59.9073 13.9587C59.9073 14.3707 59.9966 14.6822 60.1753 14.8932C60.3565 15.1041 60.5898 15.2096 60.8752 15.2096C61.044 15.2096 61.2028 15.1649 61.3517 15.0756C61.5031 14.9838 61.626 14.8473 61.7203 14.6661C61.8146 14.4824 61.8617 14.2603 61.8617 13.9997C61.8617 13.5852 61.7699 13.2626 61.5863 13.0318C61.4051 12.8009 61.1656 12.6855 60.8678 12.6855C60.5774 12.6855 60.3441 12.796 60.1679 13.0169C59.9941 13.2378 59.9073 13.5517 59.9073 13.9587Z"
          fill="white"/>
    <path d="M38.3128 20.5735C38.2434 20.5735 38.1834 20.5511 38.133 20.5063C38.0825 20.4614 38.0573 20.3987 38.0573 20.318C38.0573 20.2496 38.0814 20.1908 38.1296 20.1414C38.1778 20.0921 38.2372 20.0675 38.3078 20.0675C38.3784 20.0675 38.4384 20.0921 38.4877 20.1414C38.5381 20.1896 38.5634 20.2485 38.5634 20.318C38.5634 20.3976 38.5381 20.4603 38.4877 20.5063C38.4384 20.5511 38.3801 20.5735 38.3128 20.5735ZM40.7338 20.0053C40.7338 20.0624 40.7165 20.1235 40.6817 20.1885C40.6481 20.2535 40.596 20.3157 40.5254 20.3751C40.4559 20.4334 40.3679 20.4805 40.2614 20.5164C40.1549 20.5522 40.035 20.5702 39.9016 20.5702C39.6181 20.5702 39.3967 20.4878 39.2375 20.323C39.0784 20.1571 38.9988 19.9352 38.9988 19.6572C38.9988 19.4689 39.0352 19.3025 39.1081 19.1579C39.1809 19.0133 39.2863 18.9018 39.4242 18.8233C39.562 18.7438 39.7268 18.704 39.9184 18.704C40.0372 18.704 40.146 18.7213 40.2446 18.7561C40.3444 18.7908 40.4284 18.8357 40.4968 18.8906C40.5663 18.9455 40.619 19.0044 40.6548 19.0671C40.6918 19.1288 40.7103 19.1865 40.7103 19.2403C40.7103 19.2952 40.6896 19.3417 40.6481 19.3798C40.6078 19.4179 40.5584 19.437 40.5002 19.437C40.462 19.437 40.4301 19.4275 40.4043 19.4084C40.3797 19.3882 40.3516 19.3563 40.3203 19.3126C40.2642 19.2274 40.2054 19.1635 40.1437 19.1209C40.0832 19.0783 40.0059 19.057 39.9117 19.057C39.7761 19.057 39.6668 19.1103 39.5839 19.2168C39.5009 19.3221 39.4595 19.4667 39.4595 19.6505C39.4595 19.7368 39.4701 19.8164 39.4914 19.8893C39.5127 19.961 39.5435 20.0226 39.5839 20.0742C39.6242 20.1246 39.673 20.1633 39.7301 20.1902C39.7873 20.216 39.8501 20.2289 39.9184 20.2289C40.0103 20.2289 40.0888 20.2076 40.1538 20.165C40.2199 20.1224 40.2782 20.0574 40.3287 19.97C40.3567 19.9184 40.3869 19.878 40.4195 19.8489C40.452 19.8198 40.4917 19.8052 40.5388 19.8052C40.5949 19.8052 40.6414 19.8265 40.6784 19.8691C40.7154 19.9117 40.7338 19.9571 40.7338 20.0053ZM42.8539 19.6404C42.8539 19.7772 42.8326 19.9033 42.79 20.0187C42.7474 20.1342 42.6858 20.2334 42.6051 20.3163C42.5244 20.3992 42.428 20.4631 42.3159 20.508C42.2038 20.5517 42.0777 20.5735 41.9376 20.5735C41.7986 20.5735 41.6737 20.5511 41.5627 20.5063C41.4517 20.4614 41.3553 20.3976 41.2735 20.3146C41.1928 20.2306 41.1312 20.1319 41.0886 20.0187C41.0471 19.9044 41.0264 19.7783 41.0264 19.6404C41.0264 19.5014 41.0477 19.3742 41.0903 19.2588C41.1329 19.1433 41.1939 19.0447 41.2735 18.9629C41.3531 18.8811 41.4495 18.8183 41.5627 18.7746C41.6759 18.7298 41.8009 18.7073 41.9376 18.7073C42.0766 18.7073 42.2027 18.7298 42.3159 18.7746C42.4291 18.8194 42.5261 18.8833 42.6068 18.9663C42.6875 19.0492 42.7485 19.1478 42.79 19.2622C42.8326 19.3765 42.8539 19.5026 42.8539 19.6404ZM42.3932 19.6404C42.3932 19.4533 42.3518 19.3075 42.2688 19.2033C42.187 19.0991 42.0766 19.047 41.9376 19.047C41.848 19.047 41.7689 19.0705 41.7006 19.1176C41.6322 19.1635 41.5795 19.2319 41.5425 19.3227C41.5055 19.4135 41.487 19.5194 41.487 19.6404C41.487 19.7604 41.505 19.8652 41.5408 19.9548C41.5778 20.0445 41.63 20.1134 41.6972 20.1616C41.7656 20.2087 41.8457 20.2322 41.9376 20.2322C42.0766 20.2322 42.187 20.1801 42.2688 20.0759C42.3518 19.9705 42.3932 19.8254 42.3932 19.6404ZM44.7436 19.6741V20.2844C44.7436 20.3807 44.7218 20.453 44.6781 20.5012C44.6343 20.5494 44.5766 20.5735 44.5049 20.5735C44.4354 20.5735 44.3788 20.5494 44.3351 20.5012C44.2925 20.453 44.2712 20.3807 44.2712 20.2844V19.553C44.2712 19.4376 44.2673 19.3479 44.2594 19.284C44.2516 19.2201 44.2303 19.168 44.1955 19.1277C44.1608 19.0862 44.1059 19.0654 44.0308 19.0654C43.8806 19.0654 43.7814 19.117 43.7332 19.2201C43.6861 19.3232 43.6626 19.4712 43.6626 19.664V20.2844C43.6626 20.3796 43.6407 20.4519 43.597 20.5012C43.5544 20.5494 43.4978 20.5735 43.4272 20.5735C43.3577 20.5735 43.3006 20.5494 43.2557 20.5012C43.212 20.4519 43.1902 20.3796 43.1902 20.2844V18.9713C43.1902 18.885 43.2098 18.8194 43.249 18.7746C43.2893 18.7298 43.342 18.7073 43.407 18.7073C43.4698 18.7073 43.5219 18.7286 43.5634 18.7712C43.606 18.8127 43.6273 18.8704 43.6273 18.9444V18.9881C43.7069 18.8928 43.792 18.8228 43.8828 18.778C43.9736 18.7331 44.0745 18.7107 44.1855 18.7107C44.3009 18.7107 44.4001 18.7337 44.483 18.7796C44.566 18.8256 44.6343 18.8951 44.6881 18.9881C44.7655 18.894 44.8484 18.8245 44.937 18.7796C45.0255 18.7337 45.1236 18.7107 45.2312 18.7107C45.3567 18.7107 45.4649 18.7354 45.5557 18.7847C45.6465 18.834 45.7143 18.9046 45.7591 18.9965C45.7983 19.0795 45.8179 19.21 45.8179 19.3882V20.2844C45.8179 20.3807 45.7961 20.453 45.7524 20.5012C45.7087 20.5494 45.6509 20.5735 45.5792 20.5735C45.5097 20.5735 45.4526 20.5494 45.4077 20.5012C45.364 20.4519 45.3422 20.3796 45.3422 20.2844V19.5127C45.3422 19.414 45.3377 19.335 45.3287 19.2756C45.3209 19.2162 45.2984 19.1663 45.2615 19.126C45.2245 19.0856 45.1684 19.0654 45.0933 19.0654C45.0328 19.0654 44.9751 19.0834 44.9202 19.1192C44.8664 19.1551 44.8243 19.2033 44.7941 19.2638C44.7604 19.3412 44.7436 19.4779 44.7436 19.6741Z"
          fill="white"/>
    <path d="M16.0759 16.7974L18.6222 11.699L17.6133 9.74358C17.4331 9.38369 17.0608 9.15576 16.6524 9.15576H12.0763C11.2836 9.15576 10.7551 9.9955 11.1154 10.7033L14.1782 16.7494C14.3583 17.1093 14.7307 17.3372 15.1391 17.3372C15.7036 17.3372 15.9798 16.9653 16.0759 16.7974Z"
          fill="white"/>
    <path d="M21.5891 16.7132L27.8948 4.12908C28.039 3.84117 28.3032 3.63723 28.6035 3.56525C28.4714 3.54126 28.3272 3.54126 28.1951 3.54126H24.2916C23.8832 3.54126 23.5109 3.76919 23.3307 4.12908L19.0789 12.6344L16.5326 17.7329C16.4365 17.9008 16.1602 18.2727 15.5957 18.2727H16.2563H16.8568H17.9859H20.1598H21.9014H22.55C21.7453 18.2607 21.2288 17.4209 21.5891 16.7132Z"
          fill="#FF9420"/>
    <path d="M32.7472 3.5293H28.8437C28.7596 3.5293 28.6755 3.54129 28.5914 3.55329C30.4411 3.81721 31.5701 5.84458 30.6934 7.59603L26.1292 16.7012C25.6488 17.6489 24.6759 18.2607 23.6069 18.2607H28.1711C29.24 18.2607 30.2129 17.6609 30.6934 16.7012L35.2575 7.59603C36.1943 5.72462 34.8371 3.5293 32.7472 3.5293Z"
          fill="#FFC414"/>
    <path d="M26.1411 16.7011L30.7052 7.59597C31.582 5.85651 30.453 3.81714 28.6033 3.55322C28.303 3.6252 28.0388 3.82914 27.8947 4.11705L21.5889 16.7011C21.2286 17.4089 21.7451 18.2487 22.5498 18.2487H23.6308C24.6878 18.2607 25.6726 17.6608 26.1411 16.7011Z"
          fill="#FFB300"/>
</svg>